<?xml version="1.0" encoding="UTF-8"?>
<svg version="1.1" xmlns="http://www.w3.org/2000/svg" width="1024" height="1024">
<path d="M0 0 C337.92 0 675.84 0 1024 0 C1024 337.92 1024 675.84 1024 1024 C686.08 1024 348.16 1024 0 1024 C0 686.08 0 348.16 0 0 Z " fill="#2D46CE" transform="translate(0,0)"/>
<path d="M0 0 C1.01154144 0.00093658 2.02308289 0.00187317 3.0652771 0.00283813 C17.55071785 0.03197407 31.88081189 0.18570377 46.25 2.1875 C47.46365234 2.35411133 48.67730469 2.52072266 49.92773438 2.69238281 C59.39958778 4.01304046 68.83133303 5.53108336 78.25 7.1875 C79.73185791 7.44756836 79.73185791 7.44756836 81.24365234 7.71289062 C109.04953507 12.81004349 136.66034858 23.40015839 162.25 35.1875 C163.55348389 35.78546387 163.55348389 35.78546387 164.88330078 36.39550781 C186.3061208 46.35556674 206.48558794 58.86472591 225.25 73.1875 C225.88470215 73.66670898 226.5194043 74.14591797 227.17333984 74.63964844 C234.57188047 80.23927516 241.57341024 86.13110731 248.3359375 92.484375 C250.54793305 94.53625291 252.78217617 96.51998817 255.06640625 98.48828125 C259.50197477 102.35209366 263.66556778 106.4555505 267.8125 110.625 C268.52857422 111.33720703 269.24464844 112.04941406 269.98242188 112.78320312 C313.40981422 156.28962621 343.90625291 213.9644963 359.25 273.1875 C359.51651367 274.21375488 359.78302734 275.24000977 360.05761719 276.29736328 C366.38534293 301.11594017 370.39260773 326.51557398 370.41796875 352.16015625 C370.42129715 353.36328964 370.42462555 354.56642303 370.42805481 355.80601501 C370.43308645 358.33803937 370.43546431 360.87007026 370.43530273 363.40209961 C370.43748027 367.21544715 370.45565245 371.02850066 370.47460938 374.84179688 C370.50635688 388.43659738 370.07095788 401.71401734 368.25 415.1875 C368.10925049 416.34870361 367.96850098 417.50990723 367.82348633 418.70629883 C360.32677298 479.46695342 336.83602589 538.10075606 300.25 587.1875 C299.85103516 587.72536133 299.45207031 588.26322266 299.04101562 588.81738281 C282.61093176 610.86967733 263.53414645 633.11717019 241.86328125 650.1328125 C239.07068253 652.32848803 236.3856131 654.62694077 233.6875 656.9375 C182.99894087 699.09109609 119.98950146 724.09120932 55.25 734.1875 C54.21020996 734.35266113 53.17041992 734.51782227 52.09912109 734.68798828 C19.72389955 739.58963839 -15.43703623 739.42975011 -47.75 734.1875 C-48.95865723 733.99414062 -50.16731445 733.80078125 -51.41259766 733.6015625 C-135.37452637 719.71328431 -217.49186363 676.76206955 -272.75 611.1875 C-273.55695313 610.25808594 -274.36390625 609.32867188 -275.1953125 608.37109375 C-315.23866798 562.06437909 -344.3130612 503.6064752 -355.8125 443.4375 C-356.00385025 442.44585342 -356.00385025 442.44585342 -356.19906616 441.43417358 C-358.75786497 428.0956694 -360.48788733 414.71096207 -361.75 401.1875 C-361.84498779 400.28563965 -361.93997559 399.3837793 -362.0378418 398.45458984 C-362.95526951 389.0421893 -362.95046729 379.63533408 -362.9375 370.1875 C-362.93656342 369.30589203 -362.93562683 368.42428406 -362.93466187 367.51596069 C-362.75473967 289.02113425 -338.885951 212.37053935 -291.75 149.1875 C-291.14357666 148.37273193 -291.14357666 148.37273193 -290.52490234 147.54150391 C-278.50742701 131.47533494 -265.21258543 116.58961351 -251.0625 102.375 C-250.3617334 101.66956055 -249.6609668 100.96412109 -248.93896484 100.23730469 C-208.49488863 59.91691066 -157.0228031 31.83223753 -102.75 15.1875 C-101.90791992 14.92888184 -101.06583984 14.67026367 -100.19824219 14.40380859 C-95.08210654 12.8573939 -89.93937465 11.46578539 -84.75 10.1875 C-83.50065674 9.8788501 -83.50065674 9.8788501 -82.22607422 9.56396484 C-65.90723325 5.61195558 -49.41472121 3.16473555 -32.75 1.1875 C-31.91243164 1.08074951 -31.07486328 0.97399902 -30.21191406 0.86401367 C-20.19480043 -0.25153756 -10.06478264 -0.01196107 0 0 Z " fill="#FEC000" transform="translate(508.75,130.8125)"/>
<path d="M0 0 C1.01154144 0.00093658 2.02308289 0.00187317 3.0652771 0.00283813 C17.55071785 0.03197407 31.88081189 0.18570377 46.25 2.1875 C47.46365234 2.35411133 48.67730469 2.52072266 49.92773438 2.69238281 C59.39958778 4.01304046 68.83133303 5.53108336 78.25 7.1875 C79.73185791 7.44756836 79.73185791 7.44756836 81.24365234 7.71289062 C109.04953507 12.81004349 136.66034858 23.40015839 162.25 35.1875 C163.55348389 35.78546387 163.55348389 35.78546387 164.88330078 36.39550781 C186.3061208 46.35556674 206.48558794 58.86472591 225.25 73.1875 C225.88470215 73.66670898 226.5194043 74.14591797 227.17333984 74.63964844 C234.57188047 80.23927516 241.57341024 86.13110731 248.3359375 92.484375 C250.54793305 94.53625291 252.78217617 96.51998817 255.06640625 98.48828125 C259.50197477 102.35209366 263.66556778 106.4555505 267.8125 110.625 C268.52857422 111.33720703 269.24464844 112.04941406 269.98242188 112.78320312 C313.40981422 156.28962621 343.90625291 213.9644963 359.25 273.1875 C359.51651367 274.21375488 359.78302734 275.24000977 360.05761719 276.29736328 C366.38534293 301.11594017 370.39260773 326.51557398 370.41796875 352.16015625 C370.42129715 353.36328964 370.42462555 354.56642303 370.42805481 355.80601501 C370.43308645 358.33803937 370.43546431 360.87007026 370.43530273 363.40209961 C370.43748027 367.21544715 370.45565245 371.02850066 370.47460938 374.84179688 C370.50635688 388.43659738 370.07095788 401.71401734 368.25 415.1875 C368.10925049 416.34870361 367.96850098 417.50990723 367.82348633 418.70629883 C360.32677298 479.46695342 336.83602589 538.10075606 300.25 587.1875 C299.85103516 587.72536133 299.45207031 588.26322266 299.04101562 588.81738281 C282.61093176 610.86967733 263.53414645 633.11717019 241.86328125 650.1328125 C239.07068253 652.32848803 236.3856131 654.62694077 233.6875 656.9375 C182.99894087 699.09109609 119.98950146 724.09120932 55.25 734.1875 C54.21020996 734.35266113 53.17041992 734.51782227 52.09912109 734.68798828 C19.72389955 739.58963839 -15.43703623 739.42975011 -47.75 734.1875 C-48.95865723 733.99414062 -50.16731445 733.80078125 -51.41259766 733.6015625 C-135.37452637 719.71328431 -217.49186363 676.76206955 -272.75 611.1875 C-273.55695313 610.25808594 -274.36390625 609.32867188 -275.1953125 608.37109375 C-315.23866798 562.06437909 -344.3130612 503.6064752 -355.8125 443.4375 C-356.00385025 442.44585342 -356.00385025 442.44585342 -356.19906616 441.43417358 C-358.75786497 428.0956694 -360.48788733 414.71096207 -361.75 401.1875 C-361.84498779 400.28563965 -361.93997559 399.3837793 -362.0378418 398.45458984 C-362.95526951 389.0421893 -362.95046729 379.63533408 -362.9375 370.1875 C-362.93656342 369.30589203 -362.93562683 368.42428406 -362.93466187 367.51596069 C-362.75473967 289.02113425 -338.885951 212.37053935 -291.75 149.1875 C-291.14357666 148.37273193 -291.14357666 148.37273193 -290.52490234 147.54150391 C-278.50742701 131.47533494 -265.21258543 116.58961351 -251.0625 102.375 C-250.3617334 101.66956055 -249.6609668 100.96412109 -248.93896484 100.23730469 C-208.49488863 59.91691066 -157.0228031 31.83223753 -102.75 15.1875 C-101.90791992 14.92888184 -101.06583984 14.67026367 -100.19824219 14.40380859 C-95.08210654 12.8573939 -89.93937465 11.46578539 -84.75 10.1875 C-83.50065674 9.8788501 -83.50065674 9.8788501 -82.22607422 9.56396484 C-65.90723325 5.61195558 -49.41472121 3.16473555 -32.75 1.1875 C-31.91243164 1.08074951 -31.07486328 0.97399902 -30.21191406 0.86401367 C-20.19480043 -0.25153756 -10.06478264 -0.01196107 0 0 Z M-38.75 31.1875 C-39.84683105 31.34347656 -40.94366211 31.49945313 -42.07373047 31.66015625 C-108.6739253 41.30588649 -172.64026699 68.36596737 -222.08984375 114.7109375 C-224.24920973 116.72127235 -226.4378842 118.65572753 -228.6875 120.5625 C-237.31934984 128.05667926 -245.46911005 136.37925432 -252.75 145.1875 C-253.42168213 145.98849121 -253.42168213 145.98849121 -254.10693359 146.80566406 C-266.61367152 161.74349148 -277.75855113 177.46368773 -287.75 194.1875 C-288.11657715 194.79819336 -288.4831543 195.40888672 -288.86083984 196.03808594 C-309.3604608 230.48922102 -322.3671914 267.90418892 -329.75 307.1875 C-329.90452637 307.98849121 -330.05905273 308.78948242 -330.21826172 309.61474609 C-340.55765693 363.73083827 -335.12127004 420.87081424 -318.75 473.1875 C-318.48106934 474.04811035 -318.21213867 474.9087207 -317.93505859 475.79541016 C-304.67711005 517.40185296 -282.55779194 556.41104953 -253.75 589.1875 C-253.15058594 589.88617187 -252.55117188 590.58484375 -251.93359375 591.3046875 C-250.22755581 593.28615807 -248.49422511 595.23954368 -246.75 597.1875 C-245.49703125 598.59708984 -245.49703125 598.59708984 -244.21875 600.03515625 C-233.06946039 612.4335045 -220.94092197 623.97575225 -207.75 634.1875 C-207.18941895 634.62594238 -206.62883789 635.06438477 -206.05126953 635.51611328 C-175.888694 659.0260086 -142.52322328 676.89809524 -106.75 690.1875 C-105.98107422 690.47367188 -105.21214844 690.75984375 -104.41992188 691.0546875 C-74.06803345 702.17178897 -40.48627217 708.76090828 -8.09765625 709.15673828 C-5.58467094 709.18966633 -3.07457769 709.26538784 -0.5625 709.33984375 C71.2650893 710.91896387 143.19645785 687.07049186 201.25 645.1875 C202.14066162 644.54554688 202.14066162 644.54554688 203.04931641 643.890625 C213.67366973 636.17975414 223.69541926 627.84541337 233.30078125 618.91015625 C236.95633429 615.51355334 240.71899055 612.23883369 244.484375 608.96484375 C246.48492136 607.36856458 246.48492136 607.36856458 246.25 605.1875 C246.91 605.1875 247.57 605.1875 248.25 605.1875 C249.68467016 603.80792584 249.68467016 603.80792584 251.1875 601.9375 C254.10309247 598.48907851 257.13456858 595.20614936 260.25 591.9375 C281.41992663 569.21282533 298.16731794 541.22896576 311.25 513.1875 C311.62833984 512.38248047 312.00667969 511.57746094 312.39648438 510.74804688 C327.23153991 478.85626083 337.20202838 444.75828784 340.97363281 409.74853516 C341.25000083 407.18749229 341.55842035 404.63153155 341.8671875 402.07421875 C344.59405362 377.93456299 343.97198919 353.29350446 341.25 329.1875 C341.15348145 328.2898291 341.05696289 327.3921582 340.95751953 326.46728516 C333.19490394 256.04289906 300.97597246 182.63702379 249.25 133.1875 C246.36052433 130.31840864 243.49900252 127.4232532 240.6484375 124.515625 C233.16889647 116.91450315 225.71919822 109.68711724 217.25 103.1875 C216.26 102.40375 215.27 101.62 214.25 100.8125 C144.33787893 45.72595351 49.86875206 17.99475353 -38.75 31.1875 Z " fill="#FDFDFD" transform="translate(508.75,130.8125)"/>
<path d="M0 0 C11.82732079 9.46543524 22.95208069 22.41453613 25 38 C25.42985617 42.66267515 25.75045945 47.32439816 26 52 C26.23074219 51.17757812 26.46148437 50.35515625 26.69921875 49.5078125 C31.37369024 33.50744765 38.66497254 21.21874299 53 12 C69.32090807 3.08664693 85.14789254 2.0220085 103 7 C112.72648247 9.98426167 121.18078127 15.4230903 128 23 C129.28777344 24.41345703 129.28777344 24.41345703 130.6015625 25.85546875 C135.11861298 31.14047277 138.81436765 37.01282214 142.625 42.8125 C143.42723315 44.02531542 144.2299725 45.23779614 145.03320312 46.44995117 C146.62644067 48.8556723 148.2173622 51.26289233 149.80566406 53.671875 C159.79037367 68.81557342 170.04366164 83.65417044 180.8125 98.25 C182.60940629 100.68674913 184.40608753 103.12366284 186.20214844 105.56103516 C187.39452942 107.1786188 188.58787903 108.79548891 189.78222656 110.41162109 C203.86682839 129.50295047 214.54666442 145.7613132 211.59765625 170.35546875 C209.12592112 184.65276019 202.47469315 197.00491734 192 207 C191.19175781 207.83724609 191.19175781 207.83724609 190.3671875 208.69140625 C179.87911899 218.78419579 164.71946675 222.88368223 150.5625 223.4375 C134.79183737 222.9770427 120.92151661 216.56427247 109.54296875 205.80078125 C104.01497071 199.71234102 99.57881563 192.81087016 95 186 C93.82307832 184.27113807 92.64464862 182.54330193 91.46484375 180.81640625 C89.59272291 178.07529938 87.72175844 175.33346016 85.85546875 172.58837891 C76.66393458 159.06963111 67.30935629 145.66276469 57.875 132.3125 C57.4011084 131.64105957 56.9272168 130.96961914 56.43896484 130.27783203 C54.39938627 127.38929182 52.35805155 124.50215931 50.30517578 121.62304688 C48.51080939 119.10647894 46.72394362 116.58469627 44.9375 114.0625 C44.40817871 113.32491455 43.87885742 112.5873291 43.33349609 111.82739258 C37.45154369 103.49773178 32.26110303 94.72876785 27 86 C26.99635437 87.00430054 26.99270874 88.00860107 26.98895264 89.04333496 C26.95178027 98.57460061 26.89376877 108.1055498 26.81609726 117.63657379 C26.77682873 122.53490915 26.74454024 127.43307029 26.72900391 132.33154297 C26.7137 137.07154622 26.67901637 141.81106977 26.63169098 146.55085754 C26.61701721 148.34621476 26.60896718 150.14164052 26.60811615 151.9370575 C26.58864832 172.44168639 22.97472551 190.48377921 8.234375 205.79296875 C7.49703125 206.52128906 6.7596875 207.24960937 6 208 C5.38640625 208.63550781 4.7728125 209.27101563 4.140625 209.92578125 C-6.86623094 220.5328155 -20.78181585 224.43138348 -35.63696289 224.36352539 C-50.60009438 224.03877333 -64.17479766 218.22269928 -75.1328125 207.9921875 C-88.51162261 193.71772483 -94.50320315 176.46547709 -94.37231445 157.13818359 C-94.37596512 155.91379074 -94.37961578 154.68939789 -94.38337708 153.42790222 C-94.39003839 150.10758961 -94.38345247 146.78784919 -94.37004495 143.46759367 C-94.35861721 139.97161104 -94.36284648 136.47564076 -94.36479187 132.97964478 C-94.36567107 127.11431043 -94.3546713 121.24909249 -94.33618164 115.38378906 C-94.31499999 108.62631888 -94.31151062 101.86901875 -94.3177436 95.11152208 C-94.32345947 88.57720049 -94.31776677 82.04293808 -94.30657005 75.50862503 C-94.30195542 72.74253863 -94.30103646 69.9764888 -94.3031559 67.21039963 C-94.30540812 63.34121232 -94.29085542 59.47218331 -94.2746582 55.60302734 C-94.27713562 54.47028885 -94.27961304 53.33755035 -94.28216553 52.17048645 C-94.16327316 34.29835299 -88.02427923 18.72650544 -75.76953125 5.61328125 C-54.83411532 -13.83998134 -23.34853361 -17.48166948 0 0 Z " fill="#2D46D1" transform="translate(457,389)"/>
<path d="M0 0 C8.13441326 5.1764448 12.9320409 13.37793308 18.07421875 21.30859375 C19.25926316 23.1168359 20.44716026 24.92318056 21.6353302 26.72937012 C22.42905483 27.9361979 23.22185457 29.14363451 24.01371765 30.35168457 C28.12147694 36.60996438 32.36754703 42.77131536 36.65283203 48.90917969 C37.14380371 49.61848633 37.63477539 50.32779297 38.140625 51.05859375 C38.56545166 51.66703125 38.99027832 52.27546875 39.42797852 52.90234375 C40.44921875 54.55859375 40.44921875 54.55859375 41.44921875 57.55859375 C40.8665625 57.9553833 40.28390625 58.35217285 39.68359375 58.76098633 C37.93454774 59.95228329 36.18570571 61.14387974 34.43701172 62.33569336 C32.43680347 63.69831275 30.4358199 65.05979469 28.43408203 66.42016602 C23.78744347 69.58174636 19.15147738 72.75351078 14.56640625 76.00390625 C13.84324219 76.51332764 13.12007812 77.02274902 12.375 77.54760742 C11.03620575 78.49321055 9.70258895 79.4461992 8.375 80.4074707 C5.01507877 82.77093581 3.69008298 83.55859375 -0.55078125 83.55859375 C-2.41015625 81.57421875 -2.41015625 81.57421875 -4.30078125 78.80859375 C-5.00589844 77.79152344 -5.71101562 76.77445312 -6.4375 75.7265625 C-8.34461147 72.86765788 -10.23072775 69.99619179 -12.11328125 67.12109375 C-16.48878824 60.46195563 -21.31491054 54.15654517 -26.18383789 47.85180664 C-33.13880424 38.74030362 -37.53150457 32.1393486 -37.09375 20.35546875 C-35.95750836 12.40995169 -32.74185944 5.84662055 -26.36328125 0.87109375 C-18.33147759 -4.49928385 -8.6449379 -3.39460912 0 0 Z " fill="#FDC401" transform="translate(554.55078125,432.44140625)"/>
<path d="M0 0 C0.86625 0.598125 1.7325 1.19625 2.625 1.8125 C3.635625 2.493125 4.64625 3.17375 5.6875 3.875 C10.50824747 8.17263388 13.23632583 13.80743227 14.06045532 20.17926025 C14.20106875 24.05546379 14.18899694 27.91274099 14.11328125 31.7890625 C14.10393443 33.20965316 14.09682717 34.63026014 14.09184265 36.0508728 C14.07291898 39.75675401 14.02395017 43.46162657 13.96832275 47.16711426 C13.91680975 50.96153119 13.89426089 54.75611406 13.86914062 58.55078125 C13.81581239 65.97180976 13.73068378 73.39201258 13.625 80.8125 C-1.71826121 81.78227723 -17.00381893 81.93037716 -32.375 81.8125 C-32.49127521 73.3626936 -32.57990654 64.91322606 -32.63406086 56.46281528 C-32.66006333 52.53815345 -32.69528703 48.61404226 -32.75219727 44.68969727 C-32.8068555 40.89654633 -32.83649072 37.10392224 -32.84938622 33.31040764 C-32.85856604 31.86918796 -32.87649152 30.42799442 -32.90365028 28.98700142 C-33.0553841 20.59626304 -32.83569112 13.61141439 -27.375 6.8125 C-19.78383271 -1.0020965 -10.60724834 -3.73217997 0 0 Z " fill="#FEC700" transform="translate(432.375,416.1875)"/>
<path d="M0 0 C0.66 0 1.32 0 2 0 C-3.17555574 25.20495647 -13.98632056 49.35326786 -26 72 C-26.38124023 72.71994141 -26.76248047 73.43988281 -27.15527344 74.18164062 C-34.61583071 88.16492524 -43.05123269 101.16020251 -52.5 113.875 C-53.01675293 114.57189941 -53.53350586 115.26879883 -54.06591797 115.98681641 C-57.75422698 120.87711349 -57.75422698 120.87711349 -60 122 C-58.7727206 117.49997553 -57.38136866 115.16321584 -54 112 C-53.67 111.01 -53.34 110.02 -53 109 C-51.84177734 107.87271484 -51.84177734 107.87271484 -50.66015625 106.72265625 C-47.80207368 103.79742343 -46.2586371 101.08399958 -44.4375 97.4375 C-41.4288259 91.42710025 -41.4288259 91.42710025 -39.05859375 89.06640625 C-36.22988344 86.2269608 -34.53333969 83.00117273 -32.625 79.5 C-32.23578369 78.79528564 -31.84656738 78.09057129 -31.44555664 77.36450195 C-24.98866357 67.14930924 -24.98866357 67.14930924 -22 56 C-21.34 55.67 -20.68 55.34 -20 55 C-16.53511198 48.85818915 -14.39809399 43.03299382 -14 36 C-13.01 36 -12.02 36 -11 36 C-10.81824219 35.38253906 -10.63648438 34.76507812 -10.44921875 34.12890625 C-8.93848314 29.03888934 -7.34842067 24.00432822 -5.55078125 19.0078125 C-4.82363605 16.70408249 -4.82363605 16.70408249 -5 13 C-4.34 12.67 -3.68 12.34 -3 12 C-2.08514427 9.19521805 -2.08514427 9.19521805 -1.375 5.9375 C-1.11460937 4.83277344 -0.85421875 3.72804688 -0.5859375 2.58984375 C-0.39257812 1.73519531 -0.19921875 0.88054688 0 0 Z " fill="#FE9C0A" transform="translate(838,588)"/>
<path d="M0 0 C0.99 0.66 1.98 1.32 3 2 C-25.00192206 18.5449265 -55.40050543 30.21264194 -86.875 38.25 C-87.67671631 38.45488037 -88.47843262 38.65976074 -89.30444336 38.87084961 C-92.7061786 39.67905119 -94.61947411 40.12684196 -98 39 C-98 38.67 -98 38.34 -98 38 C-95.10431253 37.35350695 -92.20845721 36.70778268 -89.3125 36.0625 C-88.08756836 35.78889648 -88.08756836 35.78889648 -86.83789062 35.50976562 C-86.04189453 35.33251953 -85.24589844 35.15527344 -84.42578125 34.97265625 C-83.6570166 34.80008301 -82.88825195 34.62750977 -82.09619141 34.44970703 C-80.40016764 34.08585008 -78.69142239 33.78162159 -76.98046875 33.49609375 C-76.32691406 33.33238281 -75.67335938 33.16867187 -75 33 C-74.67 32.34 -74.34 31.68 -74 31 C-72.08618164 30.49682617 -72.08618164 30.49682617 -69.59765625 30.10546875 C-63.95954994 29.07517015 -58.79318644 27.32352471 -53.4375 25.3125 C-52.49165039 24.9623584 -51.54580078 24.6122168 -50.57128906 24.25146484 C-44.43083904 21.95989764 -38.32226484 19.59158902 -32.25 17.125 C-31.54157959 16.83923096 -30.83315918 16.55346191 -30.10327148 16.2590332 C-27.2806486 15.08876301 -25.18255806 14.18255806 -23 12 C-20.24817429 10.98302093 -17.55551634 10.12011164 -14.6875 9.5 C-14.130625 9.335 -13.57375 9.17 -13 9 C-12.67 8.34 -12.34 7.68 -12 7 C-10.38375534 6.11063786 -8.73169109 5.28550169 -7.0625 4.5 C-3.2248649 2.69388758 -3.2248649 2.69388758 0 0 Z " fill="#FEA10C" transform="translate(677,793)"/>
<path d="M0 0 C3.58642878 0.59033252 6.44086941 1.57202681 9.6875 3.1875 C16.1683255 6.22538695 22.86884576 8.37740978 29.66796875 10.5703125 C32.57386684 11.50758346 35.42335504 12.5317132 38.26953125 13.63671875 C41.16786576 14.69590068 43.46840715 15.41682207 46.5 15.6875 C48.2325 15.8421875 48.2325 15.8421875 50 16 C50 16.66 50 17.32 50 18 C55.94 19.32 61.88 20.64 68 22 C67.67 22.66 67.34 23.32 67 24 C50.88048961 20.49127175 35.37600543 15.75100204 19.9375 9.9375 C19.09348633 9.62135742 18.24947266 9.30521484 17.37988281 8.97949219 C11.39192854 6.67824843 5.69054419 3.95751088 0 1 C0 0.67 0 0.34 0 0 Z " fill="#FEAA0B" transform="translate(374,808)"/>
<path d="M0 0 C0 0.33 0 0.66 0 1 C-7.61399923 3.19386419 -14.16296501 2.89635331 -22 2 C-22.33 2.66 -22.66 3.32 -23 4 C-27.22932952 3.85867396 -31.45841971 3.71108331 -35.6875 3.5625 C-36.86634766 3.52318359 -38.04519531 3.48386719 -39.25976562 3.44335938 C-47.19358612 3.16078495 -55.08973117 2.67245949 -63 2 C-63 1.67 -63 1.34 -63 1 C-56.27803804 0.85549913 -49.55602904 0.71335444 -42.83398438 0.57275391 C-40.55304875 0.52477827 -38.2721239 0.47628737 -35.99121094 0.42724609 C-11.68600572 -0.09464482 -11.68600572 -0.09464482 0 0 Z " fill="#0D1EB0" transform="translate(550,867)"/>
<path d="M0 0 C0.66 0.33 1.32 0.66 2 1 C-5.68118372 7.67052472 -13.54993224 13.65562967 -22.05639648 19.22509766 C-23.83358184 20.38880446 -25.603743 21.56263338 -27.37304688 22.73828125 C-39.39057898 30.69850387 -39.39057898 30.69850387 -44 33 C-44.66 32.67 -45.32 32.34 -46 32 C-40.25 28 -40.25 28 -38 28 C-38 27.34 -38 26.68 -38 26 C-36.88625 25.484375 -35.7725 24.96875 -34.625 24.4375 C-30.11007332 22.20422377 -26.14923839 19.37312302 -22.1015625 16.390625 C-20 15 -20 15 -18 15 C-18 14.34 -18 13.68 -18 13 C-16.34467377 11.98133771 -14.67739862 10.98189187 -13 10 C-12.67 9.34 -12.34 8.68 -12 8 C-10.29288511 7.01512602 -8.58347897 6.03367094 -6.85546875 5.0859375 C-4.36571819 3.62877822 -2.19586183 1.86315549 0 0 Z " fill="#FE9D0B" transform="translate(726,761)"/>
<path d="M0 0 C11.32560641 2.61360148 17.75462803 12.0084361 24 21 C23.67 21.66 23.34 22.32 23 23 C22.20335937 21.98679687 22.20335937 21.98679687 21.390625 20.953125 C20.68421875 20.06109375 19.9778125 19.1690625 19.25 18.25 C18.55390625 17.36828125 17.8578125 16.4865625 17.140625 15.578125 C12.68214094 10.19836822 12.68214094 10.19836822 6.4375 7.4375 C3.09842574 6.53093852 1.28268198 5.63274184 -1 3 C-0.34 3 0.32 3 1 3 C0.67 2.01 0.34 1.02 0 0 Z " fill="#1D38E0" transform="translate(569,401)"/>
<path d="M0 0 C7.47244451 0.73790389 14.68579818 2.39807498 22 4.0625 C23.25167969 4.34416016 24.50335938 4.62582031 25.79296875 4.91601562 C28.86275765 5.60730396 31.93171892 6.30205525 35 7 C35 7.33 35 7.66 35 8 C32.62468606 8.0543965 30.25064117 8.09385864 27.875 8.125 C27.20984375 8.14175781 26.5446875 8.15851562 25.859375 8.17578125 C21.50483944 8.21847278 18.04399886 7.59996217 14 6 C14 5.34 14 4.68 14 4 C12.80375 3.87625 11.6075 3.7525 10.375 3.625 C6.72403187 3.17674946 3.45475101 2.29553163 0 1 C0 0.67 0 0.34 0 0 Z " fill="#1827B2" transform="translate(418,856)"/>
<path d="M0 0 C2.97 0.495 2.97 0.495 6 1 C5.32930848 5.58894201 4.23877704 9.92547207 2.9375 14.375 C2.57527344 15.62023437 2.21304687 16.86546875 1.83984375 18.1484375 C1.56269531 19.08945312 1.28554688 20.03046875 1 21 C0.67 21 0.34 21 0 21 C-0.19645093 17.87549468 -0.38063489 14.75038555 -0.5625 11.625 C-0.61857422 10.73554688 -0.67464844 9.84609375 -0.73242188 8.9296875 C-0.78076172 8.07890625 -0.82910156 7.228125 -0.87890625 6.3515625 C-0.9260376 5.56604004 -0.97316895 4.78051758 -1.02172852 3.97119141 C-1 2 -1 2 0 0 Z " fill="#F7CC08" transform="translate(482,423)"/>
<path d="M0 0 C0.33 0.66 0.66 1.32 1 2 C-0.06396484 4.55029297 -0.06396484 4.55029297 -1.7109375 7.7421875 C-2.29617188 8.89074219 -2.88140625 10.03929687 -3.484375 11.22265625 C-4.11402456 12.44039325 -4.74423893 13.65783837 -5.375 14.875 C-6.59636277 17.2447989 -7.81098044 19.61779242 -9.0234375 21.9921875 C-9.56919434 23.04776855 -10.11495117 24.10334961 -10.67724609 25.19091797 C-12.05896574 27.85090318 -12.05896574 27.85090318 -12.49853516 30.31298828 C-12.66401855 30.86970215 -12.82950195 31.42641602 -13 32 C-14.485 32.495 -14.485 32.495 -16 33 C-17.21869929 35.50447516 -17.21869929 35.50447516 -18 38 C-18.66 37.67 -19.32 37.34 -20 37 C-19.64284912 36.34104736 -19.28569824 35.68209473 -18.91772461 35.00317383 C-9.43696741 17.51341093 -9.43696741 17.51341093 0 0 Z " fill="#0F21C0" transform="translate(847,653)"/>
<path d="M0 0 C0.66 0.33 1.32 0.66 2 1 C1.154375 1.721875 0.30875 2.44375 -0.5625 3.1875 C-3.34894155 5.73609463 -3.34894155 5.73609463 -2.8125 8.8125 C-2.544375 9.534375 -2.27625 10.25625 -2 11 C-4.65228812 12.07525194 -7.28368454 13.09456151 -10 14 C-11.69281093 16.77713308 -11.69281093 16.77713308 -13.1875 20.0625 C-13.71730469 21.16722656 -14.24710937 22.27195312 -14.79296875 23.41015625 C-15.39044922 24.69212891 -15.39044922 24.69212891 -16 26 C-17.21079153 22.36762541 -16.76395223 21.77432105 -15.125 18.4375 C-11.36302304 11.23056661 -5.72767676 5.67295374 0 0 Z " fill="#1B38E2" transform="translate(504,405)"/>
<path d="M0 0 C1.32 0.66 2.64 1.32 4 2 C3.52578613 2.49927002 3.05157227 2.99854004 2.56298828 3.51293945 C0.41470197 5.77729955 -1.73017978 8.04485674 -3.875 10.3125 C-4.62136719 11.09818359 -5.36773438 11.88386719 -6.13671875 12.69335938 C-7.20986328 13.8293457 -7.20986328 13.8293457 -8.3046875 14.98828125 C-8.96452637 15.68477783 -9.62436523 16.38127441 -10.30419922 17.09887695 C-12.16449057 19.0951622 -12.16449057 19.0951622 -14 22 C-14.66 22 -15.32 22 -16 22 C-16.33 22.99 -16.66 23.98 -17 25 C-17.66 24.34 -18.32 23.68 -19 23 C-18.360625 22.7525 -17.72125 22.505 -17.0625 22.25 C-16.381875 21.8375 -15.70125 21.425 -15 21 C-14.814375 20.1028125 -14.814375 20.1028125 -14.625 19.1875 C-13.62273598 15.67957592 -10.78430143 14.20423863 -8 12 C-7.67 11.34 -7.34 10.68 -7 10 C-6.34 10 -5.68 10 -5 10 C-4.87625 9.360625 -4.7525 8.72125 -4.625 8.0625 C-4.41875 7.381875 -4.2125 6.70125 -4 6 C-3.34 5.67 -2.68 5.34 -2 5 C-1.27840576 3.35636866 -0.60648579 1.68949614 0 0 Z " fill="#FEA20D" transform="translate(771,714)"/>
<path d="M0 0 C-6.625 3 -6.625 3 -10 3 C-10.33 3.99 -10.66 4.98 -11 6 C-15.36228979 8.028972 -18.35656242 8.10558038 -23 7 C-21.45722084 3.91444168 -18.86412199 3.71486206 -15.70898438 2.64257812 C-14.87689453 2.36865234 -14.04480469 2.09472656 -13.1875 1.8125 C-11.95676758 1.38420898 -11.95676758 1.38420898 -10.70117188 0.94726562 C-9.90646484 0.68236328 -9.11175781 0.41746094 -8.29296875 0.14453125 C-7.5661792 -0.09934326 -6.83938965 -0.34321777 -6.09057617 -0.59448242 C-3.72990887 -1.05239068 -2.2628096 -0.74682606 0 0 Z " fill="#1C2CB6" transform="translate(640,847)"/>
<path d="M0 0 C-1.25 1.5 -1.25 1.5 -3 3 C-4.32 3 -5.64 3 -7 3 C-7.33 3.66 -7.66 4.32 -8 5 C-11.74120806 5.60342066 -15.21680921 6 -19 6 C-19.66 5.34 -20.32 4.68 -21 4 C-18.43923903 3.32595716 -15.87673417 2.660586 -13.3125 2 C-12.59126953 1.80921875 -11.87003906 1.6184375 -11.12695312 1.421875 C-7.33149039 0.45134572 -3.95384561 -0.24955239 0 0 Z " fill="#1F2FB4" transform="translate(605,857)"/>
<path d="M0 0 C0 0.33 0 0.66 0 1 C-7.54698639 3.09682973 -14.27660875 3.07427243 -22.0625 2.625 C-23.21427734 2.56828125 -24.36605469 2.5115625 -25.55273438 2.453125 C-28.36923026 2.31288454 -31.18466302 2.16160641 -34 2 C-34 1.67 -34 1.34 -34 1 C-22.65384417 0.36077995 -11.36783648 -0.16938829 0 0 Z " fill="#0109A9" transform="translate(550,867)"/>
<path d="M0 0 C-1.11933362 3.35800085 -2.02405444 4.1056451 -4.6875 6.3125 C-7.38374342 8.58760665 -9.93223742 10.8922017 -12.375 13.4375 C-15 16 -15 16 -17 16 C-17 15.01 -17 14.02 -17 13 C-15.34151823 11.98648336 -13.67334039 10.98879205 -12 10 C-10.65080468 8.34614767 -9.31866272 6.678298 -8 5 C-2.72752044 0 -2.72752044 0 0 0 Z " fill="#FE9F0E" transform="translate(752,739)"/>
<path d="M0 0 C0.33 0.99 0.66 1.98 1 3 C0.195625 3.12375 -0.60875 3.2475 -1.4375 3.375 C-2.7059375 3.684375 -2.7059375 3.684375 -4 4 C-4.33 4.66 -4.66 5.32 -5 6 C-6.82287297 6.93845254 -8.68364553 7.80435092 -10.5625 8.625 C-11.57441406 9.07101562 -12.58632813 9.51703125 -13.62890625 9.9765625 C-14.41136719 10.31429687 -15.19382812 10.65203125 -16 11 C-14.55678165 6.67034494 -11.29179837 5.75545989 -7.4375 3.8125 C-6.72658203 3.44447266 -6.01566406 3.07644531 -5.28320312 2.69726562 C-3.52659773 1.78948968 -1.76385756 0.89360293 0 0 Z " fill="#111FB4" transform="translate(699,817)"/>
<path d="M0 0 C5.85659906 1.66153012 11.4590134 3.47041916 17 6 C12.471679 7.50944033 8.46645364 6.52049486 4 5 C1.375 2.375 1.375 2.375 0 0 Z " fill="#1526B5" transform="translate(375,841)"/>
<path d="M0 0 C0.33 0.66 0.66 1.32 1 2 C-0.61892721 6.00471469 -2.108098 8.93242706 -6 11 C-6.99 10.67 -7.98 10.34 -9 10 C-6.03 6.7 -3.06 3.4 0 0 Z " fill="#1E31C2" transform="translate(795,735)"/>
<path d="M0 0 C0.66 1.32 1.32 2.64 2 4 C1.34 4 0.68 4 0 4 C-0.28875 4.639375 -0.5775 5.27875 -0.875 5.9375 C-2 8 -2 8 -4 9 C-4.99 10.485 -4.99 10.485 -6 12 C-6.66 11.34 -7.32 10.68 -8 10 C-5.36 6.7 -2.72 3.4 0 0 Z " fill="#1C2FC1" transform="translate(804,724)"/>
<path d="M0 0 C1.26706235 3.80118706 0.57172296 5.3850372 -1 9 C-1.99 9.33 -2.98 9.66 -4 10 C-5.21869929 12.50447516 -5.21869929 12.50447516 -6 15 C-6.66 14.67 -7.32 14.34 -8 14 C-5.36 9.38 -2.72 4.76 0 0 Z " fill="#1B2FC5" transform="translate(835,676)"/>
<path d="M0 0 C2.31 1.65 4.62 3.3 7 5 C6.01 5.495 6.01 5.495 5 6 C5 7.65 5 9.3 5 11 C4.01 11 3.02 11 2 11 C1.34 7.37 0.68 3.74 0 0 Z " fill="#F4BF0C" transform="translate(665,527)"/>
<path d="M0 0 C0.66 0.33 1.32 0.66 2 1 C1.67 2.65 1.34 4.3 1 6 C-0.36125 5.9690625 -0.36125 5.9690625 -1.75 5.9375 C-4.42672588 5.9889755 -6.46988052 6.2215017 -9 7 C-6.25604436 4.05278838 -3.61662784 1.80831392 0 0 Z " fill="#172AB9" transform="translate(710,810)"/>
<path d="M0 0 C0.33 0.66 0.66 1.32 1 2 C0.07421875 3.9453125 0.07421875 3.9453125 -1.3125 6.125 C-1.98732422 7.21167969 -1.98732422 7.21167969 -2.67578125 8.3203125 C-3.11277344 8.87460937 -3.54976562 9.42890625 -4 10 C-4.66 10 -5.32 10 -6 10 C-6.66 11.32 -7.32 12.64 -8 14 C-8 9.96618977 -6.40426438 8.50566363 -4 5.3125 C-3.2575 4.31863281 -2.515 3.32476563 -1.75 2.30078125 C-1.1725 1.54152344 -0.595 0.78226563 0 0 Z " fill="#1626C1" transform="translate(817,706)"/>
<path d="M0 0 C1.32 0.33 2.64 0.66 4 1 C2.515 6.445 2.515 6.445 1 12 C0.67 12 0.34 12 0 12 C0 8.04 0 4.08 0 0 Z " fill="#E2C726" transform="translate(482,432)"/>
<path d="M0 0 C-2.97 3.96 -2.97 3.96 -6 8 C-7 5 -7 5 -7 1 C-5 0 -5 0 0 0 Z " fill="#FBD407" transform="translate(383,393)"/>
<path d="M0 0 C0.66 0.33 1.32 0.66 2 1 C-0.31 3.64 -2.62 6.28 -5 9 C-5.99 8.34 -6.98 7.68 -8 7 C-5.36 4.69 -2.72 2.38 0 0 Z " fill="#1628BC" transform="translate(747,783)"/>
<path d="M0 0 C5.68748885 1.25124755 8.72847508 3.04102568 13 7 C12.67 7.66 12.34 8.32 12 9 C9.997193 7.69161864 7.99773901 6.37857806 6 5.0625 C5.42765625 4.68931641 4.8553125 4.31613281 4.265625 3.93164062 C2.82614271 2.98055411 1.41085511 1.99305724 0 1 C0 0.67 0 0.34 0 0 Z " fill="#FDAD0D" transform="translate(328,783)"/>
<path d="M0 0 C0 0.66 0 1.32 0 2 C-4.455 2.495 -4.455 2.495 -9 3 C-9.33 2.34 -9.66 1.68 -10 1 C-6.52674819 -0.1577506 -3.63932552 -0.06866652 0 0 Z " fill="#1B2BB2" transform="translate(583,862)"/>
<path d="M0 0 C0.66 0.33 1.32 0.66 2 1 C0.12050295 4.57104439 -1.17053157 6.54744301 -5 8 C-4.45773019 4.20411134 -2.79872437 2.52788007 0 0 Z " fill="#1A2EBF" transform="translate(755,776)"/>
<path d="M0 0 C2 2 2 2 2 5 C2.66 5 3.32 5 4 5 C5.125 10.625 5.125 10.625 4 14 C3.32739649 12.23141309 2.66211605 10.46003984 2 8.6875 C1.62875 7.70136719 1.2575 6.71523438 0.875 5.69921875 C0 3 0 3 0 0 Z " fill="#1329CA" transform="translate(859,374)"/>
<path d="M0 0 C4.62 0 9.24 0 14 0 C14 0.33 14 0.66 14 1 C5.96498906 3.27571116 5.96498906 3.27571116 1.9375 2.125 C1.298125 1.75375 0.65875 1.3825 0 1 C0 0.67 0 0.34 0 0 Z " fill="#1120AF" transform="translate(536,867)"/>
<path d="M0 0 C4.16138263 -0.08159574 7.9472484 0.01751476 12 1 C10 3 10 3 6.875 3.125 C5.92625 3.08375 4.9775 3.0425 4 3 C4 2.34 4 1.68 4 1 C2.68 0.67 1.36 0.34 0 0 Z " fill="#1220AC" transform="translate(454,864)"/>
<path d="M0 0 C1.53445094 3.06890187 0.54984289 5.70094266 0 9 C-0.99 9.33 -1.98 9.66 -3 10 C-3.33 10.66 -3.66 11.32 -4 12 C-3.45660208 7.43545749 -2.20536179 4.0271824 0 0 Z " fill="#1529C4" transform="translate(858,626)"/>
<path d="M0 0 C0.99 0.66 1.98 1.32 3 2 C-1.95 4.475 -1.95 4.475 -7 7 C-7 6.34 -7 5.68 -7 5 C-5.46875 3.7109375 -5.46875 3.7109375 -3.5 2.375 C-2.8503125 1.92898438 -2.200625 1.48296875 -1.53125 1.0234375 C-1.0259375 0.68570313 -0.520625 0.34796875 0 0 Z " fill="#FE9F06" transform="translate(677,793)"/>
<path d="M0 0 C0 3 0 3 -2 5.1875 C-2.66 5.785625 -3.32 6.38375 -4 7 C-4.33 5.68 -4.66 4.36 -5 3 C-3.35 2.01 -1.7 1.02 0 0 Z " fill="#293CC5" transform="translate(788,745)"/>
<path d="M0 0 C0.33 0.66 0.66 1.32 1 2 C-0.65 3.98 -2.3 5.96 -4 8 C-4 5.66666667 -4 3.33333333 -4 1 C-2.68 0.67 -1.36 0.34 0 0 Z " fill="#1A35E2" transform="translate(470,586)"/>
<path d="M0 0 C2.31 0 4.62 0 7 0 C2.375 4 2.375 4 -1 4 C-0.67 2.68 -0.34 1.36 0 0 Z " fill="#EECB12" transform="translate(505,400)"/>
<path d="M0 0 C0.66 0 1.32 0 2 0 C2 0.66 2 1.32 2 2 C3.32 2.33 4.64 2.66 6 3 C3.36 3.66 0.72 4.32 -2 5 C-1.34 3.35 -0.68 1.7 0 0 Z " fill="#F4D00C" transform="translate(406,376)"/>
<path d="M0 0 C0.66 0.33 1.32 0.66 2 1 C0.35 2.98 -1.3 4.96 -3 7 C-3.33 5.68 -3.66 4.36 -4 3 C-2.68 2.01 -1.36 1.02 0 0 Z " fill="#1C30BD" transform="translate(736,792)"/>
<path d="M0 0 C2.475 0.495 2.475 0.495 5 1 C5.33 2.65 5.66 4.3 6 6 C5.34 5.67 4.68 5.34 4 5 C4 4.34 4 3.68 4 3 C2.68 2.67 1.36 2.34 0 2 C0 1.34 0 0.68 0 0 Z " fill="#2541D8" transform="translate(530,541)"/>
<path d="M0 0 C0.33 0.66 0.66 1.32 1 2 C1.66 2 2.32 2 3 2 C1.768606 4.46278801 0.21935077 5.42497687 -2 7 C-2 3 -2 3 0 0 Z " fill="#F4CF0A" transform="translate(404,425)"/>
<path d="M0 0 C-0.99 0.33 -1.98 0.66 -3 1 C-3 1.66 -3 2.32 -3 3 C-5.31 3 -7.62 3 -10 3 C-9 1 -9 1 -7.25 0.375 C-4.79549443 -0.03408426 -2.4840589 -0.06900164 0 0 Z " fill="#1B2AB5" transform="translate(616,854)"/>
<path d="M0 0 C0.33 0.99 0.66 1.98 1 3 C0.195625 3.12375 -0.60875 3.2475 -1.4375 3.375 C-2.7059375 3.684375 -2.7059375 3.684375 -4 4 C-4.33 4.66 -4.66 5.32 -5 6 C-5.33 5.01 -5.66 4.02 -6 3 C-4.02 2.01 -2.04 1.02 0 0 Z " fill="#1F31BC" transform="translate(699,817)"/>
<path d="M0 0 C3.16115776 1.36983503 3.9927092 1.9890638 6 5 C5.67 5.99 5.34 6.98 5 8 C0 2.25 0 2.25 0 0 Z " fill="#EAC91A" transform="translate(584,410)"/>
</svg>
